<svg xmlns="http://www.w3.org/2000/svg" xmlns:xlink="http://www.w3.org/1999/xlink" viewBox="0 0 500.59 379.19"><defs><style>.cls-1{fill:#fcfdfc;}.cls-2{fill:#b23d3d;}.cls-3{fill:#6b1e1e;}.cls-4{fill:#af6666;}.cls-5{fill:#5a6473;}.cls-6{fill:url(#linear-gradient);}.cls-7{fill:url(#linear-gradient-2);}.cls-8{isolation:isolate;}.cls-22,.cls-52,.cls-60,.cls-61,.cls-62,.cls-68,.cls-76,.cls-9{fill:none;}.cls-22,.cls-52,.cls-68,.cls-9{stroke:#000;}.cls-9{stroke-miterlimit:10;stroke-width:0.14px;}.cls-10{fill:url(#linear-gradient-3);}.cls-11{fill:url(#linear-gradient-4);}.cls-12{fill:url(#linear-gradient-5);}.cls-13{fill:url(#linear-gradient-6);}.cls-14{fill:url(#linear-gradient-7);}.cls-15{fill:url(#linear-gradient-8);}.cls-16{fill:url(#linear-gradient-9);}.cls-17{fill:url(#linear-gradient-10);}.cls-18{fill:url(#linear-gradient-11);}.cls-19{fill:url(#linear-gradient-12);}.cls-20{fill:url(#linear-gradient-13);}.cls-21{fill:#c7c7c7;}.cls-22{stroke-miterlimit:10;stroke-width:0.16px;}.cls-23{fill:#576671;}.cls-24{fill:url(#linear-gradient-14);}.cls-25{fill:url(#linear-gradient-15);}.cls-26{fill:url(#linear-gradient-16);}.cls-27{fill:url(#linear-gradient-17);}.cls-28{fill:url(#linear-gradient-18);}.cls-29{fill:url(#linear-gradient-19);}.cls-30{fill:url(#linear-gradient-20);}.cls-31{fill:url(#linear-gradient-21);}.cls-32{fill:url(#linear-gradient-22);}.cls-33{fill:url(#linear-gradient-23);}.cls-34{fill:url(#linear-gradient-24);}.cls-35{fill:url(#linear-gradient-25);}.cls-36{fill:url(#linear-gradient-26);}.cls-37{fill:url(#linear-gradient-27);}.cls-38{fill:url(#linear-gradient-28);}.cls-39{fill:url(#linear-gradient-29);}.cls-40{fill:url(#linear-gradient-30);}.cls-41{fill:#231f20;}.cls-42{fill:url(#linear-gradient-31);}.cls-43{fill:#5e7818;}.cls-44{fill:url(#linear-gradient-32);}.cls-45{fill:url(#linear-gradient-33);}.cls-46{fill:url(#linear-gradient-34);}.cls-47{fill:url(#linear-gradient-35);}.cls-48{fill:url(#linear-gradient-36);}.cls-49{fill:url(#linear-gradient-37);}.cls-50{fill:url(#linear-gradient-38);}.cls-51{fill:url(#linear-gradient-39);}.cls-52{stroke-miterlimit:10;stroke-width:0.11px;}.cls-53{fill:url(#linear-gradient-40);}.cls-54{fill:url(#linear-gradient-41);}.cls-55{fill:url(#linear-gradient-42);}.cls-56{fill:#9b9da0;}.cls-57{fill:url(#linear-gradient-43);}.cls-58{fill:url(#linear-gradient-44);}.cls-59{fill:#fff;}.cls-60{stroke:#1a8861;}.cls-60,.cls-68{stroke-miterlimit:10;}.cls-61,.cls-62{stroke:#e1d5e5;}.cls-61{stroke-miterlimit:10;}.cls-62{stroke-miterlimit:10;}.cls-63{fill:#1a8861;}.cls-64{fill:url(#linear-gradient-45);}.cls-65{opacity:0.2;}.cls-66{fill:url(#linear-gradient-46);}.cls-67{fill:url(#linear-gradient-47);}.cls-68{stroke-width:0.14px;}.cls-69{fill:url(#linear-gradient-48);}.cls-70{fill:url(#linear-gradient-49);}.cls-71{fill:url(#linear-gradient-50);}.cls-72{fill:url(#linear-gradient-51);}.cls-73{fill:url(#linear-gradient-52);}.cls-74{fill:url(#linear-gradient-53);}.cls-75{fill:url(#linear-gradient-54);}</style><linearGradient id="linear-gradient" x1="416.75" y1="149.92" x2="389.55" y2="326.26" gradientTransform="matrix(1, 0, 0, -1, 0, 382.02)" gradientUnits="userSpaceOnUse"><stop offset="0" stop-color="#fff"/><stop offset="0.18" stop-color="#f7f7f7"/><stop offset="0.46" stop-color="#e1e1e1"/><stop offset="0.81" stop-color="#bcbcbc"/><stop offset="1" stop-color="#a6a6a6"/></linearGradient><linearGradient id="linear-gradient-2" x1="424.56" y1="218.52" x2="424.56" y2="180.66" xlink:href="#linear-gradient"/><linearGradient id="linear-gradient-3" x1="351.5" y1="110.77" x2="386.68" y2="175.62" gradientTransform="matrix(1, 0, 0, -1, 0, 382.02)" gradientUnits="userSpaceOnUse"><stop offset="0" stop-color="#dca37a"/><stop offset="0.8" stop-color="#c3916c"/><stop offset="1" stop-color="#bd8d69"/></linearGradient><linearGradient id="linear-gradient-4" x1="416.07" y1="190.24" x2="355.36" y2="198.91" gradientTransform="matrix(1, 0, 0, -1, 0, 382.02)" gradientUnits="userSpaceOnUse"><stop offset="0" stop-color="#fff"/><stop offset="0.25" stop-color="#fcfcfc"/><stop offset="0.45" stop-color="#f1f1f1"/><stop offset="0.64" stop-color="#e0e0e0"/><stop offset="0.81" stop-color="#c8c8c8"/><stop offset="0.98" stop-color="#a9a9a9"/><stop offset="1" stop-color="#a6a6a6"/></linearGradient><linearGradient id="linear-gradient-5" x1="489.85" y1="217.03" x2="482.79" y2="226" xlink:href="#linear-gradient-3"/><linearGradient id="linear-gradient-6" x1="407.04" y1="135.8" x2="470.71" y2="253.16" xlink:href="#linear-gradient-4"/><linearGradient id="linear-gradient-7" x1="449.37" y1="290.61" x2="418.14" y2="276.14" xlink:href="#linear-gradient-4"/><linearGradient id="linear-gradient-8" x1="426.15" y1="280.72" x2="329.21" y2="221.25" xlink:href="#linear-gradient-3"/><linearGradient id="linear-gradient-9" x1="319.02" y1="307.66" x2="265.52" y2="216.66" xlink:href="#linear-gradient"/><linearGradient id="linear-gradient-10" x1="332.04" y1="224.53" x2="314.01" y2="341.41" xlink:href="#linear-gradient"/><linearGradient id="linear-gradient-11" x1="306.48" y1="270.93" x2="306.48" y2="236.01" xlink:href="#linear-gradient"/><linearGradient id="linear-gradient-12" x1="243.04" y1="358.68" x2="271.6" y2="333.2" xlink:href="#linear-gradient"/><linearGradient id="linear-gradient-13" x1="231.39" y1="308.65" x2="304.47" y2="332.68" xlink:href="#linear-gradient-3"/><linearGradient id="linear-gradient-14" x1="179.49" y1="212.33" x2="129.18" y2="299.89" gradientTransform="matrix(1, 0, 0, -1, 0, 382.02)" gradientUnits="userSpaceOnUse"><stop offset="0" stop-color="#dca37a"/><stop offset="1" stop-color="#bd8d69"/></linearGradient><linearGradient id="linear-gradient-15" x1="100.22" y1="305.21" x2="136.66" y2="345.27" xlink:href="#linear-gradient-14"/><linearGradient id="linear-gradient-16" x1="113.74" y1="314.29" x2="70.32" y2="209.73" xlink:href="#linear-gradient"/><linearGradient id="linear-gradient-17" x1="106.85" y1="290.15" x2="91.63" y2="248.84" gradientTransform="matrix(1, 0, 0, -1, 0, 382.02)" gradientUnits="userSpaceOnUse"><stop offset="0" stop-color="#fff"/><stop offset="1" stop-color="#a6a6a6"/></linearGradient><linearGradient id="linear-gradient-18" x1="141.23" y1="304.07" x2="143.63" y2="404.55" xlink:href="#linear-gradient-14"/><linearGradient id="linear-gradient-19" x1="65.91" y1="308.13" x2="131.2" y2="316.5" xlink:href="#linear-gradient-17"/><linearGradient id="linear-gradient-20" x1="114.54" y1="267.15" x2="98.51" y2="362.41" xlink:href="#linear-gradient-17"/><linearGradient id="linear-gradient-21" x1="12.12" y1="230.21" x2="77.21" y2="295.97" xlink:href="#linear-gradient-14"/><linearGradient id="linear-gradient-22" x1="78.33" y1="275.47" x2="14.78" y2="358.88" xlink:href="#linear-gradient-17"/><linearGradient id="linear-gradient-23" x1="304.04" y1="333.56" x2="298.65" y2="257.38" xlink:href="#linear-gradient-4"/><linearGradient id="linear-gradient-24" x1="264.21" y1="319.13" x2="296.14" y2="236.45" gradientTransform="matrix(1, 0, 0, -1, 0, 382.02)" gradientUnits="userSpaceOnUse"><stop offset="0" stop-color="#dca37a"/><stop offset="1" stop-color="#faab78"/></linearGradient><linearGradient id="linear-gradient-25" x1="322.13" y1="259.91" x2="268.35" y2="260.97" xlink:href="#linear-gradient"/><linearGradient id="linear-gradient-26" x1="414.69" y1="295" x2="402.95" y2="206.8" xlink:href="#linear-gradient-4"/><linearGradient id="linear-gradient-27" x1="42.96" y1="49.32" x2="112.2" y2="49.32" xlink:href="#linear-gradient"/><linearGradient id="linear-gradient-28" x1="83.81" y1="89.18" x2="52.06" y2="89.8" xlink:href="#linear-gradient-3"/><linearGradient id="linear-gradient-29" x1="94.15" y1="78.91" x2="41.37" y2="79.95" xlink:href="#linear-gradient"/><linearGradient id="linear-gradient-30" x1="62.42" y1="142.68" x2="60.93" y2="69.23" xlink:href="#linear-gradient-3"/><linearGradient id="linear-gradient-31" x1="86.95" y1="9.91" x2="86.95" y2="-23.84" gradientTransform="matrix(1, -0.03, -0.03, -1, -1.31, 320.73)" xlink:href="#linear-gradient"/><linearGradient id="linear-gradient-32" x1="75.54" y1="29.21" x2="113.52" y2="29.21" xlink:href="#linear-gradient-3"/><linearGradient id="linear-gradient-33" x1="37.62" y1="25.78" x2="51.98" y2="25.78" xlink:href="#linear-gradient-3"/><linearGradient id="linear-gradient-34" x1="106.03" y1="86.8" x2="109.15" y2="19.56" xlink:href="#linear-gradient"/><linearGradient id="linear-gradient-35" x1="407.81" y1="68.68" x2="436.64" y2="68.68" xlink:href="#linear-gradient"/><linearGradient id="linear-gradient-36" x1="395.76" y1="45.21" x2="471.93" y2="45.21" xlink:href="#linear-gradient"/><linearGradient id="linear-gradient-37" x1="437.59" y1="83.91" x2="458.45" y2="83.91" xlink:href="#linear-gradient-3"/><linearGradient id="linear-gradient-38" x1="424.87" y1="115.69" x2="472.51" y2="115.69" xlink:href="#linear-gradient-3"/><linearGradient id="linear-gradient-39" x1="821.4" y1="4.61" x2="821.4" y2="-23.53" gradientTransform="matrix(0.92, 0.39, 0.39, -0.92, -304.21, 11.62)" xlink:href="#linear-gradient"/><linearGradient id="linear-gradient-40" x1="246.54" y1="162.71" x2="252.53" y2="162.71" gradientTransform="matrix(0.97, -0.22, -0.22, -0.97, 232.27, 524.75)" xlink:href="#linear-gradient"/><linearGradient id="linear-gradient-41" x1="442.75" y1="69.68" x2="463.48" y2="69.68" xlink:href="#linear-gradient"/><linearGradient id="linear-gradient-42" x1="376.71" y1="39.95" x2="419.13" y2="39.95" xlink:href="#linear-gradient-3"/><linearGradient id="linear-gradient-43" x1="410.14" y1="20.45" x2="467.24" y2="20.45" xlink:href="#linear-gradient-3"/><linearGradient id="linear-gradient-44" x1="453.12" y1="45.21" x2="475.76" y2="45.21" xlink:href="#linear-gradient"/><linearGradient id="linear-gradient-45" x1="263.12" y1="196.61" x2="146.98" y2="198.9" xlink:href="#linear-gradient"/><linearGradient id="linear-gradient-46" x1="264.8" y1="120.92" x2="262.62" y2="13.88" xlink:href="#linear-gradient-3"/><linearGradient id="linear-gradient-47" x1="221.43" y1="83.13" x2="228.14" y2="-12.52" xlink:href="#linear-gradient"/><linearGradient id="linear-gradient-48" x1="215.18" y1="87.02" x2="217.39" y2="55.62" xlink:href="#linear-gradient-3"/><linearGradient id="linear-gradient-49" x1="273.68" y1="-22.23" x2="273.68" y2="-55.97" gradientTransform="matrix(1, 0.02, 0.02, -1, -41.93, 301.05)" xlink:href="#linear-gradient"/><linearGradient id="linear-gradient-50" x1="210.77" y1="130.12" x2="215.33" y2="65.1" xlink:href="#linear-gradient-3"/><linearGradient id="linear-gradient-51" x1="194.53" y1="49.87" x2="218.96" y2="77.16" xlink:href="#linear-gradient"/><linearGradient id="linear-gradient-52" x1="233.11" y1="55.97" x2="215.19" y2="77.51" xlink:href="#linear-gradient"/><linearGradient id="linear-gradient-53" x1="186.37" y1="73.56" x2="190.6" y2="13.27" xlink:href="#linear-gradient"/><linearGradient id="linear-gradient-54" x1="188.52" y1="29.78" x2="187.85" y2="-3.15" xlink:href="#linear-gradient-3"/><image id="image-2" width="760" height="953" xlink:href="../../../Bahan/LOGO%20OSIS%20SMA.png"/><image id="image-6" width="550" height="313" xlink:href="../../../Bahan/Asset%201.png"/></defs><g id="Layer_2" data-name="Layer 2"><g id="Layer_1-2" data-name="Layer 1"><path class="cls-1" d="M478.42,191.54V359.47a12.62,12.62,0,0,1-12.62,12.62H299.65A12.62,12.62,0,0,1,287,359.5v0L443.24,205.13l18.53-18.31,6-5.93a14.93,14.93,0,0,1,4.1.52h0a9.47,9.47,0,0,1,2.22,1,7.76,7.76,0,0,1,2.22,1.93,8.56,8.56,0,0,1,1.21,2.09,11.68,11.68,0,0,1,.76,3.08A16,16,0,0,1,478.42,191.54Z"/><path class="cls-2" d="M257,372.08l-83.91-.24a15.51,15.51,0,0,1-15.27-15.74V276.4a15.51,15.51,0,0,1,15.27-15.74H337.4a15.52,15.52,0,0,1,15.28,15.74Z"/><rect class="cls-1" x="7.11" y="26.99" width="217.62" height="113.11" rx="16.53"/><rect class="cls-3" x="6.45" y="150.65" width="142.59" height="221.43" rx="18.72"/><path class="cls-2" d="M478,43.52V153.38l-96.55,91.23a16.53,16.53,0,0,1-16.53-16.53V43.52A16.53,16.53,0,0,1,381.45,27H461.5A16.53,16.53,0,0,1,478,43.52Z"/><rect class="cls-3" x="236.31" y="26.99" width="116.17" height="113.11" rx="12.08"/><path class="cls-4" d="M354.33,165.5v72.16a14.84,14.84,0,0,1-14.85,14.84H174.3a14.79,14.79,0,0,1-5.38-1,14,14,0,0,1-2.2-1.07,16,16,0,0,1-1.86-1.31,15.35,15.35,0,0,1-2.56-2.72c-.17-.23-.33-.46-.48-.7a14.49,14.49,0,0,1-1.59-3.32,14.8,14.8,0,0,1-.77-4.71V165.5a14.85,14.85,0,0,1,14.83-14.85H339.48A14.85,14.85,0,0,1,354.33,165.5Z"/><path class="cls-5" d="M384.49,205c0,.7.23,7.29,0,12.7S382,243.92,382,243.92l42.09-39.45Z"/><path class="cls-6" d="M378.65,152.76l3.26,56.38s28.19-.39,36.85-2.33,19.34-15.23,19.34-15.23v-24L422.56,150Z"/><path class="cls-7" d="M416.11,167.54l16.89-.93V182.8a10.16,10.16,0,0,1-6.88,3.26c-4.29.26-8.86-3.1-8.86-3.1Z"/><use id="image" class="cls-8" transform="translate(421.17 171.99) rotate(-2.62) scale(0.01)" xlink:href="#image-2"/><path class="cls-5" d="M405.54,163.84s-3.29,29.42-2.71,31,3.41,9,4.91,9,6.14-7.14,6.26-8.86-5.62-31.7-5.62-31.7Z"/><path class="cls-5" d="M400.21,160.55s3.47,7.73,7,7.26,5.55-8,5.55-8Z"/><rect class="cls-9" x="385.98" y="164.08" width="14.72" height="1.96" rx="0.34" transform="matrix(1, -0.04, 0.04, 1, -5.63, 14.11)"/><path class="cls-10" d="M378,220.74s1.29,9.15,0,9.38-1.76-4-1.76-4,1.64,11.6,0,11.71-5.62-7-4.69-10.54,2.11-4.69,2.23-6.57.47-4,.47-4h3Z"/><path class="cls-11" d="M370.34,218.24s-2.28-56,4.18-63.66,12.21-2.18,12.69,0-6.46,66.92-6.46,66.92H370.34Z"/><path class="cls-12" d="M476.49,163.18s3.43-3.72,6-3.72,5.08,0,5.21.76-4.45.29-4.83,1.1,15.62-1.73,17-.71,1.13,4.4-3.82,4.4-13.72-.51-14.73,0-3.43,2-3.43,2Z"/><path class="cls-13" d="M445.12,182.37s-22.67-22.2-20.93-26.92,13.83-7.56,17.2-3.65,9.77,15.47,12.08,15.11,22.92-7.82,23.63-6.57,4.62,8.17,3.73,9.06S451.69,182.37,445.12,182.37Z"/><path class="cls-14" d="M424.8,79.4s11.54,9.73,9.8,29-9.13,25.07-9.13,25.07,5.07-29.75,4.32-35.77-5.74-12.79-9.47-15.58-9.82-3.68-9.82-3.68S421.35,77.37,424.8,79.4Z"/><path class="cls-15" d="M425.34,134.11s8.06-8.1,7.72-17.34S431,86.55,424.33,82.39,410.48,77.26,407.91,79s-9.06,10.43-12.48,19.67a142.17,142.17,0,0,0-5.48,21S416.59,148.37,425.34,134.11Z"/><path class="cls-16" d="M256.7,140.08s-3.29-30.93,6.52-38.06,55.38,1.52,55.38,1.52l2.26,36.54Z"/><path class="cls-17" d="M337.86,140.08s-2.27-36-11.29-37-8.45.63-8.45.63l2.13,36.34Z"/><path class="cls-18" d="M298.71,114.81l15.54-.85V128.9a9.44,9.44,0,0,1-6.35,3c-4,.24-8.18-2.85-8.18-2.85Z"/><path class="cls-19" d="M273,21.37s-15.34,9.76-12.61,31.3,7.41,25.65,7.41,25.65,5.9-46.76,9.06-48.31a9.52,9.52,0,0,0,4.28-4S280.11,20.23,273,21.37Z"/><path class="cls-20" d="M281.14,26c.2.23-19.09,4.8-18.91,28.35s9.16,29,13.82,30.87,13.53,0,13.53,0l12.86-33Z"/><path class="cls-21" d="M167.18,101.58a5.87,5.87,0,0,0-3,4.71c-.19,3.31,0,3.73,0,3.73h7.68S171,101.76,167.18,101.58Z"/><rect class="cls-22" x="272.42" y="108.01" width="2.77" height="13.58" rx="0.39" transform="translate(97.59 353.75) rotate(-76.34)"/><polygon class="cls-23" points="285.28 108.15 281.14 140.27 292.92 140.27 288.28 108.4 285.28 108.15"/><use id="image-3" data-name="image" class="cls-8" transform="translate(303.41 118.97) rotate(-2.62) scale(0.01)" xlink:href="#image-2"/><path class="cls-24" d="M140.1,115.14l3,6-5.75,3.65s29.33-18.86,34.65-19.48,2.15,16.58,2.15,16.58-31.76,17.79-34.74,17.79-15.77-13.38-15.77-13.38Z"/><path d="M169,45.62s5.15,3,9.05,2.16,13.57-4.2,14-11,1.09-17.93-7.8-19.22-28.54-2.42-29.63-2.91S152.62,2.21,145.1,1s-19.65-2.5-24.8,3.8-8.19,20-7.53,24.55.2,15.06,1.92,16.26S123,37.76,123,37.76Z"/><path class="cls-25" d="M114.71,47.91s-5.56,8.56-11.4,11.82a48.51,48.51,0,0,1-10.73,4.48L97.2,81,114,78.74s-.13-.55,1.63-2.17,16-13.31,16-13.31Z"/><path class="cls-26" d="M109.07,138.85s0-29.46,1.82-29.46,8.23,21.46,11.19,20.09,20.63-13,19.91-14.61S123.15,80.74,119.76,80.1s-23.47,0-23.47,0l-5.6-20s-13.14-6.62-16.11-5.94S52,98.42,49,110.3s-3.88,29.92-3.88,29.92Z"/><path class="cls-23" d="M91.86,80.29s-1.29,9,0,9.36S100,86,100.3,85.39,91.86,80.29,91.86,80.29Z"/><path class="cls-23" d="M92.58,85.55s-17,36.8-16.19,39.85,1.9,8.33,3.06,8.65,7.28-4.85,7.8-5.9,7.07-41.76,7.07-41.76Z"/><path class="cls-27" d="M99.83,92.91l11,6.62s-5.77,16.8-12.77,14.56S99.83,92.91,99.83,92.91Z"/><path class="cls-28" d="M122.17,35.61s-10.45-5.6-2.68-11.78,9.64,6.42,9.64,6.42,4.42-4.27,6.13-2.86c0,0,.71,3.78,1.91,4.2,2.47.88,10.93-6.25,10.93-6.25s9.56,4.36,11.78,7c2.85,3.34,11.3,12.42,11.3,12.42s-12.86,21.69-30.26,22S112.79,48,112.79,48,115.28,37.72,122.17,35.61Z"/><path class="cls-29" d="M89.43,62.51s-1.68-2.11,0-2.86,2.91-.5,3.67,1.43,5.67,18.29,4.43,18.86S87,83.82,87.45,81.63,89.89,67.24,89.43,62.51Z"/><path class="cls-30" d="M118.37,82s2.74.91,3-.94-.34-2.94-2.61-3-21,.62-21.28,2-1,11.36,1.22,10.2S113.23,83.09,118.37,82Z"/><path class="cls-31" d="M26.84,82.8S-6.07,109.08,1.08,117.06s38.53,23.16,41.29,23.16S53.89,140,53.89,140s3.7,8.49,5.87,7.34,0-7.47,0-7.47-.07-1.31,1-.42,2.52,6.68,4.6,6.54,0-6.24,0-6.24.14-.62.92,0,1.9,6.78,3.24,6.78-.3-6.84-.3-6.84.3-1.09,1.12,0S71.89,146.41,73,146s0-6.32,0-6.32a11.12,11.12,0,0,0-6.61-9.73c-6.69-3-33.87-15-34.68-17.87s9.66-11.75,9.66-11.75Z"/><path class="cls-32" d="M25.18,85s-5.72-3.37-2-6.57,39.71-28.15,51.4-24.32S66.93,80.79,58.35,89.71s-13,19-16.84,14.48S32.93,91.9,25.18,85Z"/><use id="image-2-2" data-name="image-2" class="cls-8" transform="matrix(0.01, 0, 0, 0.01, 80.36, 121.18)" xlink:href="#image-6"/><use id="image-4" data-name="image" class="cls-8" transform="translate(100.52 100.36) scale(0.01)" xlink:href="#image-2"/><path class="cls-33" d="M273,21.37s5.18-.36,10,7.16,16.45,21.28,15.87,26.7-11.8,29.21-15.67,30-6-.78-7.16,0,1,6.77-1.36,7.93-12.18,6-11.41,7.93,16.64,7.91,28.83,7.34,28-4.14,30.59-4.44,5-.61,6.37,1.67,6.07,10.47,5.92,13.51,1.22,0,1.22-.76-4.26-12.3-7.29-14.88c0,0-1.22-20.64-.61-28.84s-1.06-19-3.49-22.16-7.13-15-10.32-18.52-13.66-11.45-21.56-12.63S278.31,20.13,273,21.37Z"/><path class="cls-34" d="M289.34,104.43s-4.37-7.24-4.49-10S274,70.85,271.17,69.81s-5.18-.34-3.68.92,7.7,14,7.7,15.19c0,0-6,4-6.44,6.44s-1.61,3.22-.34,4.25,6.67,3.45,7.7,5.64a83.54,83.54,0,0,0,4.37,7.13Z"/><path class="cls-35" d="M278.18,114.36s-2.31-3,0-4,11.82-8,13.57-7,22.49,36.44,22.49,36.44H294.36Z"/><path class="cls-36" d="M424.8,79.4s-17.12-5.23-23.28,9.82a256.48,256.48,0,0,0-9.8,29.19s20.75,20.07,25.54,19.16a14.32,14.32,0,0,0,7.07-3.17s3.88,4.31,2.28,9.33c0,0,13.69,6.06,14.78,8.07a28.34,28.34,0,0,0-11.87,1.47c-6,2.19-12.06,5.66-16.81,6.57s-17.14,2.93-21,.73-9.7-6.94-13-7.12-5.66,8.22-6.94,7.12-4-8.77,4.57-16.26c0,0,3.83-2.37,3.47-11s-4.21-16.44-3.66-20.64,6-19.18,10.78-24.3,9.5-9.42,14.62-10.65S417.86,74.15,424.8,79.4Z"/><path class="cls-37" d="M50,371.6c-.78-.82-10.87-69.69-5.44-72.66L50,296l17.78,10.35,14.14-13.24s17.32-.5,21.47,5.87,8.81,73.3,8.81,73.3Z"/><path class="cls-38" d="M58.88,281.47s2.23,8.93,1.87,11.35-3.66,2.32-3.66,2.32l10.64,11.18,11.62-13.14s-3.85.89-4.56,0,.17-14.3.17-14.3Z"/><polygon class="cls-39" points="77.41 293.5 86.95 292.6 69.92 313.01 57.91 308.59 49.95 295.97 57.09 295.14 67.72 304.06 77.41 293.5"/><path class="cls-40" d="M35.21,260.12s1.94,25.12,26.59,22.81,22.49-22.81,22.49-22.81,4.77,1.4,5.08-1.53.16-9.86-2-10.17-3.85,1.85-3.85,1.85l-.13-3.38s-44.23-3.24-46.24-1.08S33.88,257.79,35.21,260.12Z"/><path class="cls-41" d="M33.19,258.78s1.06,4.36,1.72,2.78,4.68-10.09,5.34-11.14,13.3,3.33,19.52,2.8,20.82-1.85,22.89-5a6.63,6.63,0,0,0,1-5.21c-.66-3-.93-4.5-.93-4.5s11.38.14,13.36-5.29S101,210.64,85,214.34,74,227,74,227s-17.1-7.49-28.87.18S32.13,237.49,33.19,258.78Z"/><path class="cls-5" d="M62,351.39S62,364,63.13,366s4.63,5.45,5.32,5.57,3.65-5.11,3.65-6.36-.91-15.1-.91-15.1Z"/><path class="cls-42" d="M77.92,312.3l15-1.22.39,14.43a9.08,9.08,0,0,1-6.06,3.07c-3.82.33-8-2.55-8-2.55Z"/><use id="image-5" data-name="image" class="cls-8" transform="matrix(0.01, 0, 0, 0.01, 82.36, 316.3)" xlink:href="#image-2"/><use id="image-2-3" data-name="image-2" class="cls-8" transform="translate(64.36 360.97) scale(0.01)" xlink:href="#image-6"/><path class="cls-43" d="M28.33,310.24s-3.33-4,0-4S77,302.4,77,302.4s2.67-1.67,3.51,3.92,12.34,43,12.34,43,1.5,1.67-1.33,2.5-41.39,6.34-41.39,6.34-3.15,1.33-4-.83S28.33,310.24,28.33,310.24Z"/><path class="cls-44" d="M89,339.49s-1.24-3.69-4.63-2.85-9.46,2-8.53,3.59,7,.74,7,.74-7.49.11-7.09,1.48,7.4,0,7.4,0-8.76,1.48-7.41,2.32,7.1-.74,7.1-.74-6.48,1.59-6.17,2.54,6.48.63,6.48.63S97,374.33,105.4,372.12s8.12-38.75,8.12-38.75l-9.87.85s-.11,24.07-2.16,22.38S89,339.49,89,339.49Z"/><path class="cls-45" d="M47.15,350.71s1.07,12.05,1.29,21.54l-10.36-.51c-.06-1.42-.09-2.41-.07-2.5.64-2.58-.16-21.21-.16-21.21s-1.22-3.7,2-5,8.79-4,9-2.21c.09.8-.89,1.81-2,2.7,1.56-.91,3.17-1.65,3.42-1,.36,1-3,2.87-4.78,3.83,2.17-1.05,6.61-3.1,6.18-2S48,347,46.41,347.64c1.71-.68,5.34-2,5.59-1.29C52.29,347.28,47.15,350.71,47.15,350.71Z"/><path class="cls-46" d="M98.59,336.52s-6.34-36.89,4.75-37.57,14.94,38.25,14.94,38.25Z"/><path class="cls-47" d="M434.59,300.85A33.8,33.8,0,0,0,408,317.27s-1.54,1.08,4.1,4.13,10.43,5.27,10.43,5.27L436.64,300Z"/><path class="cls-48" d="M395.76,370.32,434,301.77,462.92,308s8.56,5.33,9,11.63-22,52.22-22,52.22Z"/><path class="cls-5" d="M439.67,322.77S426.45,350.86,426.19,352s.09,9.94,1.22,9.57,8.85-6.54,9.55-8.41,4.65-29.57,4.65-29.57Z"/><path class="cls-49" d="M440.62,282.54s5.57,15.62,5.09,16.51-2.07,1.8-5.09,1.26l-3-.54,5.73,15.08,15.13-10.77s-3.18,0-3-2,.95-20.71.95-20.71Z"/><path class="cls-50" d="M426.09,250.71s-11.68,51.6,37.29,32.48l9.13-17-10.37-11.06-9.21-7.37-16.12-2.53Z"/><path class="cls-51" d="M446,328.83l11.79,4.26-4.7,11.08a7.64,7.64,0,0,1-5.66.23c-3-1.07-5.16-4.69-5.16-4.69Z"/><use id="image-7" data-name="image" class="cls-8" transform="matrix(0.01, 0, 0, 0.01, 448.24, 333.52)" xlink:href="#image-2"/><rect class="cls-52" x="430.77" y="315.7" width="1.45" height="10.88" rx="0.25" transform="translate(-28.49 599.95) rotate(-67.88)"/><path class="cls-41" d="M426.09,250.71h18v10.23s7.22-2.11,7.22,2.1,2.71,8.72,5.41,7.52,7.52-9.32,9.33-4.21-.3,9.93-3.61,10.53c0,0-.9,6.31.9,6.31s12.94-3.3,11.43-16.24-9.92-30.08-22.56-31.88S430.3,236.57,426.09,250.71Z"/><path class="cls-53" d="M434.59,300.85s4.75-2.19,4.83-1.11,3.85,13.43,3.33,14.49-3.91,8.43-4.25,7S434.59,300.85,434.59,300.85Z"/><path class="cls-54" d="M456.11,303.63s-13.36,9-13.36,10.16.79,7.53,1.51,7.31,19.51-13.28,19.22-14S456.94,303.07,456.11,303.63Z"/><path class="cls-5" d="M439.23,320.89s.58,3.23,1.25,3.43,3.51-3.43,3.51-3.43l-1.24-6.66Z"/><polygon class="cls-55" points="408.83 319.28 376.71 351 382.65 364.86 419.13 325.04 408.83 319.28"/><path class="cls-56" d="M392,364.51h45a2.21,2.21,0,0,1,2.22,2.22h0V370H394.34Z"/><path class="cls-56" d="M395.09,370H323.9l-22.52-52.8a6.48,6.48,0,0,1,3.48-8.49,6.41,6.41,0,0,1,2.52-.51h57.07a6.49,6.49,0,0,1,6,3.94Z"/><path class="cls-57" d="M417.43,359.36s-6.47,1-7.22-.94,4.69-3.76,7.22-3.19,10.33.28,12.3,2.91,6.38,2.34,9,2.16,15.21-.47,16.9-3.48,1.69-3.66,1.69-3.66l9.85,1.88s1.22,10.79-6.47,12.86-29.76,2.63-31,1.5-3.43-.75-4.77-.37-15.32,1.31-14.38-1S415.56,358.51,417.43,359.36Z"/><path class="cls-58" d="M453.12,355s.56-38.42,14.27-38.59,6.44,40.79,6.44,40.79Z"/><path class="cls-59" d="M269.05,173.23v19a4.08,4.08,0,0,0,3.78,4.33h10.53a4.08,4.08,0,0,0,3.78-4.33v-19a4.08,4.08,0,0,1,3.78-4.33h3.4a4.08,4.08,0,0,1,3.78,4.33v63.22a4.07,4.07,0,0,1-3.78,4.32h-3.4a4.07,4.07,0,0,1-3.78-4.32V215a4.08,4.08,0,0,0-3.78-4.33H272.83a4.08,4.08,0,0,0-3.78,4.33v21.42a4.07,4.07,0,0,1-3.78,4.32H261.8a4.07,4.07,0,0,1-3.78-4.32v-63.2a4.08,4.08,0,0,1,3.78-4.33h3.47A4.08,4.08,0,0,1,269.05,173.23Z"/><path class="cls-59" d="M318.86,174.13c0,4.47-2.31,8.1-5.91,8.1s-5.77-3.63-5.7-8.1c-.07-4.7,2.24-8.22,5.77-8.22S318.79,169.43,318.86,174.13Zm-11.32,63.06v-45a3.38,3.38,0,0,1,3.13-3.58h4.7a3.37,3.37,0,0,1,3.13,3.58v45a3.37,3.37,0,0,1-3.13,3.58h-4.7a3.38,3.38,0,0,1-3.13-3.58Z"/><path class="cls-59" d="M326.5,232.14c0-5.76,2.67-9.92,6.49-9.92s6.41,4,6.41,9.92c0,5.65-2.59,9.81-6.49,9.81C329.17,242,326.5,237.79,326.5,232.14Z"/><path class="cls-60" d="M.65,60.86S-1.45,48.27,10,56"/><path class="cls-60" d="M18.34,49.93s-2.1-12.59,9.39-4.82"/><path class="cls-60" d="M9.51,55.37s-2.1-12.59,9.38-4.81"/><path class="cls-60" d="M143.54,379.11s-2.09-12.59,9.39-4.81"/><path class="cls-60" d="M161.24,368.18s-2.1-12.59,9.38-4.81"/><path class="cls-60" d="M152.4,373.62s-2.09-12.59,9.39-4.81"/><path class="cls-60" d="M390.17,53.79s2.1-12.59-9.38-4.81"/><path class="cls-60" d="M372.48,42.87s2.1-12.6-9.38-4.82"/><path class="cls-60" d="M381.31,48.31s2.1-12.6-9.38-4.82"/><path class="cls-60" d="M476.64,20.56s2.1,12.59-9.39,4.82"/><path class="cls-60" d="M458.94,31.49s2.1,12.59-9.38,4.82"/><path class="cls-60" d="M467.78,26s2.09,12.59-9.39,4.81"/><path class="cls-60" d="M361.43,293.49s2.1-12.59-9.38-4.81"/><path class="cls-60" d="M343.74,282.56s2.1-12.59-9.38-4.81"/><path class="cls-60" d="M352.57,288s2.1-12.6-9.38-4.82"/><ellipse class="cls-61" cx="473.17" cy="48.31" rx="5.47" ry="1.22" transform="translate(194.75 433.93) rotate(-60)"/><ellipse class="cls-61" cx="245.25" cy="83.55" rx="5.47" ry="1.22" transform="translate(50.27 254.17) rotate(-60)"/><ellipse class="cls-62" cx="21.92" cy="166.17" rx="1.22" ry="5.47" transform="translate(-80.15 33.22) rotate(-30)"/><ellipse class="cls-62" cx="175.02" cy="303.57" rx="1.22" ry="5.47" transform="translate(-128.34 128.18) rotate(-30)"/><ellipse class="cls-62" cx="240.29" cy="190.31" rx="1.22" ry="5.47" transform="translate(-62.96 145.64) rotate(-30)"/><path class="cls-63" d="M182.54,248.8a128.56,128.56,0,0,1-13.62,2.69,14,14,0,0,1-2.2-1.07,16,16,0,0,1-1.86-1.31,15.35,15.35,0,0,1-2.56-2.72c1.72-.8,3.79-1.63,6.13-2.46,3.49-1.24,7.58-2.48,12-3.58l1-.24c13.24-3.23,24.27-4,24.85-1.74S196.2,245.37,182.54,248.8Z"/><path class="cls-63" d="M181.37,240.11c-.57.46-1.14.92-1.72,1.37a122.3,122.3,0,0,1-12.93,8.94,16,16,0,0,1-1.86-1.31,15.35,15.35,0,0,1-2.56-2.72c-.17-.23-.33-.46-.48-.7a119,119,0,0,1,11.85-10.59l.61-.48c11.09-8.68,21.29-14.18,22.77-12.28S191.53,231.93,181.37,240.11Z"/><path class="cls-63" d="M173.67,235.1l-.5.91c-1.58,2.84-3.19,5.51-4.74,7.92-1.23,1.9-2.43,3.64-3.57,5.18a15.35,15.35,0,0,1-2.56-2.72c-.17-.23-.33-.46-.48-.7a14.49,14.49,0,0,1-1.59-3.32c1.45-3.25,3.25-6.86,5.32-10.59,6.85-12.31,14.1-21.34,16.2-20.17S180.2,223.18,173.67,235.1Z"/><path class="cls-63" d="M476.32,184.29a8.56,8.56,0,0,1,1.21,2.09c-.75.6-1.55,1.22-2.39,1.85-3,2.22-6.52,4.61-10.41,7l-.82.5h0c-8.73,5.21-16.68,8.78-20.66,9.42l18.53-18.31c3.59-2.12,7-4,10.1-5.41h0a9.47,9.47,0,0,1,2.22.95A7.82,7.82,0,0,1,476.32,184.29Z"/><path class="cls-63" d="M477.53,186.38a11.68,11.68,0,0,1,.76,3.08c-1.58,2.73-3.45,5.7-5.55,8.76l-.44.64c-8,11.57-16.15,19.83-18.13,18.46s2.44-10.79,9.73-21.61h0c.39-.6.81-1.2,1.23-1.81a128.35,128.35,0,0,1,9-11.53,7.76,7.76,0,0,1,2.22,1.93A8.4,8.4,0,0,1,477.53,186.38Z"/><path class="cls-63" d="M478.42,191.54v19.34c-2.35,7.57-4.85,12.51-6.47,12.17-2.29-.49-1.93-11.5.79-24.83l.21-1c.67-3.19,1.41-6.21,2.19-9,.39-1.39.78-2.7,1.18-3.94a8.56,8.56,0,0,1,1.21,2.09,11.68,11.68,0,0,1,.76,3.08A14.57,14.57,0,0,1,478.42,191.54Z"/><path class="cls-64" d="M167.2,101.6s4.79,3.81,4.5,25.2-1.16,80.64,5.78,80.36,17.05,15,15.61,57.23c0,0-1.16,3.76,3.76,3.76s48.82,1.73,48.4-2.9-.13-52-3.89-59.25-13-7.23-13.3-11.27-2-90.29-4-93.13S167.2,101.6,167.2,101.6Z"/><g class="cls-65"><path d="M176.09,109.91a13.12,13.12,0,0,1,5.2-1.59,12,12,0,0,1,6.47,1c3.45,1.47,6.58.94,10-.39a9.56,9.56,0,0,1,5.91-.76c1.82.41,3.46,1.36,5.27,1.82a8.91,8.91,0,0,0,4.75,0c1.85-.52,3.47-1.45,5.46-1.31.28,0-.58-.64-.86-.66a11.87,11.87,0,0,0-4.87,1.07,9.35,9.35,0,0,1-6.57-.17,27,27,0,0,0-4.36-1.48,9.5,9.5,0,0,0-5.34.68,17.3,17.3,0,0,1-5.91,1.51c-2.19,0-3.86-1-5.86-1.63a13.42,13.42,0,0,0-10.3,1.23c-.16.09.76.81,1,.66Z"/></g><g class="cls-65"><path d="M175.5,116.1a14.28,14.28,0,0,0,10.21,1.6c1.76-.47,3.3-1.51,5.13-1.75,2.47-.33,4.76.53,7,1.39a10.07,10.07,0,0,0,4.72.86,23.32,23.32,0,0,0,5.36-1.67,9.24,9.24,0,0,1,6.55,0,11.4,11.4,0,0,0,4.74,1s-.66-.69-1-.66c-1.94.14-3.56-.77-5.36-1.29a8.91,8.91,0,0,0-4.75,0c-1.68.43-3.2,1.27-4.87,1.72a9.3,9.3,0,0,1-6.19-.58c-3.31-1.29-6.48-2-9.87-.56a12.38,12.38,0,0,1-5.48,1.24,12.82,12.82,0,0,1-6-1.49c-.62-.37-.78-.1-.16.27Z"/></g><g class="cls-65"><path d="M176.09,124.84a13.25,13.25,0,0,1,5.2-1.6,12,12,0,0,1,6.47,1c3.45,1.48,6.58.94,10-.39a9.56,9.56,0,0,1,5.91-.76c1.82.42,3.46,1.36,5.27,1.83a8.91,8.91,0,0,0,4.75,0c1.85-.53,3.47-1.45,5.46-1.31.28,0-.58-.65-.86-.67a11.88,11.88,0,0,0-4.87,1.08,9.35,9.35,0,0,1-6.57-.18,26.94,26.94,0,0,0-4.36-1.47,9.41,9.41,0,0,0-5.34.67,17.6,17.6,0,0,1-5.91,1.52c-2.19,0-3.86-1-5.86-1.64a13.47,13.47,0,0,0-10.3,1.23c-.16.1.76.81,1,.67Z"/></g><g class="cls-65"><path d="M175.5,131a14.18,14.18,0,0,0,10.21,1.6c1.76-.47,3.3-1.5,5.13-1.75,2.47-.33,4.76.53,7,1.4a10.2,10.2,0,0,0,4.72.86,22.86,22.86,0,0,0,5.36-1.68,9.35,9.35,0,0,1,6.55,0,11.4,11.4,0,0,0,4.74,1s-.66-.69-1-.67c-1.94.14-3.56-.77-5.36-1.29a9,9,0,0,0-4.75,0c-1.68.43-3.2,1.28-4.87,1.73a9.43,9.43,0,0,1-6.19-.58c-3.31-1.29-6.48-2-9.87-.57a12.36,12.36,0,0,1-5.48,1.25,13,13,0,0,1-6-1.5c-.62-.36-.78-.1-.16.27Z"/></g><g class="cls-65"><path d="M176.09,140.62a13.45,13.45,0,0,1,5.2-1.59,12,12,0,0,1,6.47,1c3.45,1.47,6.58.94,10-.39a9.56,9.56,0,0,1,5.91-.76c1.82.42,3.46,1.36,5.27,1.82a8.91,8.91,0,0,0,4.75,0c1.85-.52,3.47-1.44,5.46-1.3.28,0-.58-.65-.86-.67a11.87,11.87,0,0,0-4.87,1.07,9.35,9.35,0,0,1-6.57-.17,27,27,0,0,0-4.36-1.48,9.5,9.5,0,0,0-5.34.68,17.3,17.3,0,0,1-5.91,1.51c-2.19,0-3.86-1-5.86-1.63a13.42,13.42,0,0,0-10.3,1.23c-.16.09.76.81,1,.66Z"/></g><g class="cls-65"><path d="M175.5,146.81a14.18,14.18,0,0,0,10.21,1.6c1.76-.47,3.3-1.51,5.13-1.75,2.47-.33,4.76.53,7,1.39a10.08,10.08,0,0,0,4.72.87,23.34,23.34,0,0,0,5.36-1.68,9.24,9.24,0,0,1,6.55,0,11.09,11.09,0,0,0,4.74,1s-.66-.68-1-.66c-1.94.14-3.56-.77-5.36-1.29a9,9,0,0,0-4.75,0c-1.68.43-3.2,1.27-4.87,1.72a9.3,9.3,0,0,1-6.19-.58c-3.31-1.28-6.48-2-9.87-.56A12.32,12.32,0,0,1,181.7,148a13,13,0,0,1-6-1.5c-.62-.37-.78-.1-.16.27Z"/></g><g class="cls-65"><path d="M176.09,155.55a13.25,13.25,0,0,1,5.2-1.6,12,12,0,0,1,6.47,1c3.45,1.48,6.58.94,10-.38a9.56,9.56,0,0,1,5.91-.77c1.82.42,3.46,1.36,5.27,1.83a8.91,8.91,0,0,0,4.75,0c1.85-.53,3.47-1.45,5.46-1.31.28,0-.58-.65-.86-.67a12.21,12.21,0,0,0-4.87,1.08,9.3,9.3,0,0,1-6.57-.18,27.94,27.94,0,0,0-4.36-1.47,9.41,9.41,0,0,0-5.34.67,17.48,17.48,0,0,1-5.91,1.52c-2.19,0-3.86-1-5.86-1.64a13.47,13.47,0,0,0-10.3,1.23c-.16.1.76.81,1,.67Z"/></g><g class="cls-65"><path d="M175.5,161.73a14.18,14.18,0,0,0,10.21,1.6c1.76-.47,3.3-1.5,5.13-1.75,2.47-.33,4.76.53,7,1.4a10.07,10.07,0,0,0,4.72.86,22.86,22.86,0,0,0,5.36-1.68,9.35,9.35,0,0,1,6.55,0,11.4,11.4,0,0,0,4.74,1s-.66-.69-1-.67c-1.94.14-3.56-.77-5.36-1.29a8.91,8.91,0,0,0-4.75,0c-1.68.42-3.2,1.27-4.87,1.72a9.43,9.43,0,0,1-6.19-.58c-3.31-1.29-6.48-2-9.87-.57A12.31,12.31,0,0,1,181.7,163a13,13,0,0,1-6-1.5c-.62-.36-.78-.1-.16.27Z"/></g><g class="cls-65"><path d="M176.09,174.08a13.07,13.07,0,0,1,5.2-1.59,12.08,12.08,0,0,1,6.47,1c3.45,1.48,6.58.95,10-.38a9.56,9.56,0,0,1,5.91-.76c1.82.41,3.46,1.36,5.27,1.82a8.91,8.91,0,0,0,4.75,0c1.85-.52,3.47-1.45,5.46-1.31.28,0-.58-.65-.86-.67a12.21,12.21,0,0,0-4.87,1.08,9.35,9.35,0,0,1-6.57-.17,27,27,0,0,0-4.36-1.48,9.41,9.41,0,0,0-5.34.68,17.3,17.3,0,0,1-5.91,1.51c-2.19.05-3.86-1-5.86-1.64a13.47,13.47,0,0,0-10.3,1.24c-.16.09.76.81,1,.66Z"/></g><g class="cls-65"><path d="M175.5,180.26a14.23,14.23,0,0,0,10.21,1.61c1.76-.48,3.3-1.51,5.13-1.75,2.47-.33,4.76.52,7,1.39a10.07,10.07,0,0,0,4.72.86,22.86,22.86,0,0,0,5.36-1.68,9.35,9.35,0,0,1,6.55,0,11.4,11.4,0,0,0,4.74,1s-.66-.69-1-.66c-1.94.13-3.56-.78-5.36-1.29a8.91,8.91,0,0,0-4.75-.05c-1.68.42-3.2,1.27-4.87,1.72a9.36,9.36,0,0,1-6.19-.58c-3.31-1.29-6.48-2-9.87-.57a12.09,12.09,0,0,1-5.48,1.25,13,13,0,0,1-6-1.5c-.62-.36-.78-.1-.16.27Z"/></g><g class="cls-65"><path d="M176.09,189a13.45,13.45,0,0,1,5.2-1.59,12,12,0,0,1,6.47,1c3.45,1.47,6.58.94,10-.39a9.56,9.56,0,0,1,5.91-.76c1.82.42,3.46,1.36,5.27,1.82a8.91,8.91,0,0,0,4.75,0c1.85-.53,3.47-1.45,5.46-1.31.28,0-.58-.65-.86-.67a11.87,11.87,0,0,0-4.87,1.07,9.35,9.35,0,0,1-6.57-.17,27,27,0,0,0-4.36-1.48,9.5,9.5,0,0,0-5.34.68,17.3,17.3,0,0,1-5.91,1.51c-2.19.05-3.86-1-5.86-1.63a13.42,13.42,0,0,0-10.3,1.23c-.16.09.76.81,1,.66Z"/></g><g class="cls-65"><path d="M175.5,195.19a14.18,14.18,0,0,0,10.21,1.6c1.76-.47,3.3-1.51,5.13-1.75,2.47-.33,4.76.53,7,1.39a10.08,10.08,0,0,0,4.72.87,23.34,23.34,0,0,0,5.36-1.68,9.24,9.24,0,0,1,6.55,0,11.09,11.09,0,0,0,4.74,1s-.66-.68-1-.66c-1.94.14-3.56-.77-5.36-1.29a8.91,8.91,0,0,0-4.75,0c-1.68.43-3.2,1.28-4.87,1.72a9.3,9.3,0,0,1-6.19-.58c-3.31-1.28-6.48-2-9.87-.56a12.36,12.36,0,0,1-5.48,1.25,13,13,0,0,1-6-1.5c-.62-.37-.78-.1-.16.27Z"/></g><g class="cls-65"><path d="M194.89,208.22a13.29,13.29,0,0,1,5.21-1.6,12,12,0,0,1,6.47,1c3.45,1.48,6.58.94,10-.39a9.56,9.56,0,0,1,5.91-.76c1.83.42,3.47,1.36,5.28,1.83a8.91,8.91,0,0,0,4.75,0c1.85-.53,3.47-1.45,5.46-1.31.27,0-.59-.65-.87-.67a11.88,11.88,0,0,0-4.87,1.08,9.27,9.27,0,0,1-6.56-.18,27.94,27.94,0,0,0-4.36-1.47,9.44,9.44,0,0,0-5.35.67,17.49,17.49,0,0,1-5.9,1.52c-2.19,0-3.86-1-5.86-1.64a13.5,13.5,0,0,0-10.31,1.23c-.16.1.76.81,1,.67Z"/></g><g class="cls-65"><path d="M194.31,214.4a14.18,14.18,0,0,0,10.21,1.6c1.76-.47,3.3-1.5,5.13-1.75,2.46-.33,4.76.53,7,1.4a10.2,10.2,0,0,0,4.72.86,22.86,22.86,0,0,0,5.36-1.68,9.35,9.35,0,0,1,6.55,0,11.35,11.35,0,0,0,4.73,1s-.66-.69-1-.67c-1.93.14-3.56-.77-5.36-1.29a8.91,8.91,0,0,0-4.75,0c-1.67.42-3.2,1.27-4.86,1.72a9.46,9.46,0,0,1-6.2-.58c-3.3-1.29-6.47-2-9.86-.57a12.39,12.39,0,0,1-5.48,1.25,13,13,0,0,1-6-1.5c-.62-.36-.78-.1-.15.27Z"/></g><g class="cls-65"><path d="M194.89,223.14a13.12,13.12,0,0,1,5.21-1.59,12,12,0,0,1,6.47,1c3.45,1.47,6.58.94,10-.39a9.56,9.56,0,0,1,5.91-.76c1.83.41,3.47,1.36,5.28,1.82a8.91,8.91,0,0,0,4.75,0c1.85-.52,3.47-1.45,5.46-1.31.27,0-.59-.65-.87-.66a12,12,0,0,0-4.87,1.07,9.32,9.32,0,0,1-6.56-.17,27,27,0,0,0-4.36-1.48,9.45,9.45,0,0,0-5.35.68,17.24,17.24,0,0,1-5.9,1.51c-2.19,0-3.86-1-5.86-1.64a13.5,13.5,0,0,0-10.31,1.24c-.16.09.76.81,1,.66Z"/></g><g class="cls-65"><path d="M194.31,229.32a14.18,14.18,0,0,0,10.21,1.61c1.76-.48,3.3-1.51,5.13-1.75,2.46-.33,4.76.52,7,1.39a10.07,10.07,0,0,0,4.72.86,22.86,22.86,0,0,0,5.36-1.68,9.35,9.35,0,0,1,6.55,0,11.35,11.35,0,0,0,4.73,1s-.66-.69-1-.66c-1.93.13-3.56-.77-5.36-1.29a8.91,8.91,0,0,0-4.75-.05c-1.67.42-3.2,1.27-4.86,1.72a9.39,9.39,0,0,1-6.2-.58c-3.3-1.29-6.47-2-9.86-.57a12.22,12.22,0,0,1-5.48,1.25,13,13,0,0,1-6-1.5c-.62-.36-.78-.09-.15.27Z"/></g><g class="cls-65"><path d="M197.66,238.93a13.25,13.25,0,0,1,5.2-1.6,12,12,0,0,1,6.47,1c3.45,1.48,6.58.94,10-.38a9.56,9.56,0,0,1,5.91-.77c1.82.42,3.46,1.37,5.27,1.83a8.91,8.91,0,0,0,4.75,0c1.85-.53,3.47-1.45,5.46-1.31.28,0-.58-.65-.86-.67a12.21,12.21,0,0,0-4.87,1.08,9.35,9.35,0,0,1-6.57-.17,27,27,0,0,0-4.36-1.48,9.33,9.33,0,0,0-5.34.68,17.83,17.83,0,0,1-5.91,1.51c-2.19,0-3.86-1-5.86-1.64a13.47,13.47,0,0,0-10.3,1.23c-.16.1.76.81,1,.67Z"/></g><g class="cls-65"><path d="M197.07,245.11a14.18,14.18,0,0,0,10.21,1.6c1.76-.47,3.3-1.5,5.13-1.75,2.47-.33,4.76.53,7,1.4a10.07,10.07,0,0,0,4.72.86,22.86,22.86,0,0,0,5.36-1.68,9.24,9.24,0,0,1,6.55,0,11.35,11.35,0,0,0,4.73,1s-.65-.69-1-.67c-1.94.14-3.56-.77-5.36-1.29a8.91,8.91,0,0,0-4.75,0c-1.68.42-3.2,1.27-4.87,1.72a9.43,9.43,0,0,1-6.19-.58c-3.31-1.29-6.48-2-9.87-.57a12.36,12.36,0,0,1-5.48,1.25,13,13,0,0,1-6-1.5c-.62-.36-.78-.1-.16.27Z"/></g><g class="cls-65"><path d="M197.66,253.85a13.07,13.07,0,0,1,5.2-1.59,12,12,0,0,1,6.47,1c3.45,1.47,6.58.94,10-.39a9.56,9.56,0,0,1,5.91-.76c1.82.41,3.46,1.36,5.27,1.82a8.91,8.91,0,0,0,4.75,0c1.85-.52,3.47-1.45,5.46-1.31.28,0-.58-.64-.86-.66a12,12,0,0,0-4.86,1,9.35,9.35,0,0,1-6.57-.17,27,27,0,0,0-4.36-1.48,9.5,9.5,0,0,0-5.34.68,17.3,17.3,0,0,1-5.91,1.51c-2.19,0-3.86-1-5.86-1.63a13.42,13.42,0,0,0-10.3,1.23c-.16.09.76.81,1,.66Z"/></g><g class="cls-65"><path d="M197.07,260a14.28,14.28,0,0,0,10.21,1.6c1.76-.48,3.3-1.51,5.13-1.75,2.47-.33,4.76.52,7,1.39a10.07,10.07,0,0,0,4.72.86,23.32,23.32,0,0,0,5.36-1.67,9.24,9.24,0,0,1,6.55,0,11.35,11.35,0,0,0,4.73,1s-.65-.69-1-.66c-1.94.13-3.56-.77-5.36-1.29a8.91,8.91,0,0,0-4.75-.05c-1.68.43-3.2,1.27-4.87,1.72a9.3,9.3,0,0,1-6.19-.58c-3.31-1.29-6.48-2-9.87-.57a12.09,12.09,0,0,1-5.48,1.25,12.71,12.71,0,0,1-6-1.5c-.62-.36-.78-.09-.16.28Z"/></g><path class="cls-66" d="M253.21,312.41s8.66.28,10.38-4.88,4.8-29,4.8-29-6.12.58-6.22-1.31,5.57-.25,6.22-1.32-.81-4.53.76-5.11,3.85-1.23,5,0,1,4.95.72,5.77-1.45,2.14-1.45,3.46,2.78,31-.75,35.54-15.41,9.29-15.41,9.29Z"/><path class="cls-67" d="M187.86,315.33l10.94-3.81,12.29,8,15-1.55,9.1-6.44,16.45-2.21s.43,7.15,6.46,17.27l-11.74,6.33,1.75,39.14-53.68-.18L195.68,327Z"/><rect class="cls-68" x="195.07" y="330.55" width="14.57" height="1.94" rx="0.34"/><path class="cls-69" d="M207.65,299.15s.43,10.05-.85,12.74l9.91,7.65,9.26-7.15s-4.58-7.86-4-12.25Z"/><path class="cls-41" d="M196.85,291.47s-18.8-.65-15-19.72,10.1-30.07,29.14-31,31,1.62,29.14,9.38-6.34,11-10.78,11-26,4.2-27.34,11.31S196.85,291.47,196.85,291.47Z"/><path class="cls-70" d="M223.68,332.28l15-.52-.29,14.43A9.06,9.06,0,0,1,232.2,349c-3.83.15-7.85-2.92-7.85-2.92Z"/><use id="image-8" data-name="image" class="cls-8" transform="translate(227.91 336.49) scale(0.01)" xlink:href="#image-2"/><path class="cls-71" d="M235.12,259.53s5.35,13.33,4,22.64-5.7,13.26-12.62,18c-5.36,3.71-22,2.67-25.71-1.59s-5.54-15.43-6.63-15.43-4.9,4.26-6.32,1.87-3.9-13.31,0-11.71a41.12,41.12,0,0,1,6.32,3.19s-1.35-8,2.11-11.7S209.85,257.4,235.12,259.53Z"/><path class="cls-72" d="M198.51,311.52s7.23-.45,8.29.37,9.9,6.55,9.91,7.65-4.15,10.16-4.94,9C210.28,326.33,198.51,311.52,198.51,311.52Z"/><path class="cls-73" d="M234.92,311.55s-7.23-.44-8.3.37-9.9,6.56-9.91,7.65,4.2,9.64,4.95,9C223.66,326.82,234.92,311.55,234.92,311.55Z"/><path class="cls-74" d="M181.31,355s-7.25-39.21,6.26-39.71S196.84,355,196.84,355Z"/><path class="cls-5" d="M213.13,327.4s2.2,5.53,3.58,5.6,4.13-5,4.13-5l-4.13-8.39Z"/><path class="cls-5" d="M214.82,328.63s-2.68,34.49-1.56,35.38,2.74,5.05,3.86,4.16,3.77-3.42,3.86-5.5-2.74-34.07-2.74-34.07Z"/><use id="image-2-4" data-name="image-2" class="cls-8" transform="translate(214.78 359.58) scale(0.01)" xlink:href="#image-6"/><rect class="cls-75" x="183.4" y="355.04" width="9.79" height="16.74"/><use id="image-2-5" data-name="image-2" class="cls-8" transform="translate(284.59 135.62) scale(0.01)" xlink:href="#image-6"/><use id="image-2-6" data-name="image-2" class="cls-8" transform="translate(405.46 193.08) scale(0.01)" xlink:href="#image-6"/><use id="image-2-7" data-name="image-2" class="cls-8" transform="matrix(0.01, 0, 0, 0.01, 429.72, 349.61)" xlink:href="#image-6"/><rect class="cls-76" x="5.44" y="16.13" width="489.77" height="346.86"/></g></g></svg>